<svg width="84" height="28" viewBox="0 0 84 28" fill="none" xmlns="http://www.w3.org/2000/svg">
<path d="M8.448 1.296C11.76 1.296 14.172 2.016 15.684 3.456C17.22 4.872 17.988 6.828 17.988 9.324C17.988 10.812 17.676 12.216 17.052 13.536C16.428 14.832 15.384 15.876 13.92 16.668C12.48 17.46 10.512 17.856 8.016 17.856H5.676V27H0.24V1.296H8.448ZM8.16 5.76H5.676V13.392H7.476C9.012 13.392 10.224 13.092 11.112 12.492C12.024 11.868 12.48 10.872 12.48 9.504C12.48 7.008 11.04 5.76 8.16 5.76ZM46.1735 14.112C46.1735 16.776 45.7295 19.104 44.8415 21.096C43.9775 23.064 42.6455 24.6 40.8455 25.704C39.0455 26.808 36.7415 27.36 33.9335 27.36C31.1495 27.36 28.8455 26.808 27.0215 25.704C25.2215 24.6 23.8775 23.052 22.9895 21.06C22.1255 19.068 21.6935 16.74 21.6935 14.076C21.6935 11.412 22.1255 9.096 22.9895 7.128C23.8775 5.16 25.2215 3.636 27.0215 2.556C28.8455 1.452 31.1615 0.899999 33.9695 0.899999C36.7535 0.899999 39.0455 1.452 40.8455 2.556C42.6455 3.636 43.9775 5.172 44.8415 7.164C45.7295 9.132 46.1735 11.448 46.1735 14.112ZM27.4175 14.112C27.4175 16.8 27.9335 18.924 28.9655 20.484C29.9975 22.02 31.6535 22.788 33.9335 22.788C36.2615 22.788 37.9295 22.02 38.9375 20.484C39.9455 18.924 40.4495 16.8 40.4495 14.112C40.4495 11.4 39.9455 9.276 38.9375 7.74C37.9295 6.204 36.2735 5.436 33.9695 5.436C31.6655 5.436 29.9975 6.204 28.9655 7.74C27.9335 9.276 27.4175 11.4 27.4175 14.112ZM83.8258 27H51.4978V1.296H56.9338V22.464H64.9258V1.296H70.3978V22.464H78.3898V1.296H83.8258V27Z" fill="#3D96FB"/>
</svg>
