<?xml version="1.0" encoding="utf-8"?>
<!-- Generator: Adobe Illustrator 23.0.5, SVG Export Plug-In . SVG Version: 6.00 Build 0)  -->
<svg version="1.1" id="Слой_1" xmlns="http://www.w3.org/2000/svg" xmlns:xlink="http://www.w3.org/1999/xlink" x="0px" y="0px"
	 viewBox="0 0 2000 2000" style="enable-background:new 0 0 2000 2000;" xml:space="preserve">
<style type="text/css">
	.st0{fill:#2683C5;}
	.st1{fill:#7C7C7C;}
	.st2{fill:#E41B18;}
</style>
<path class="st0" d="M303.04,924.93h-82.61v215.75h52.69v-64.14h29.92C403.78,1076.55,404.12,924.93,303.04,924.93z M303.04,1026.97
	h-29.92v-50.87h29.92C335.68,976.09,335.68,1026.97,303.04,1026.97z"/>
<path class="st0" d="M517.79,921.55c-61.66,0-111.58,48.1-111.58,111.58c0,63.47,49.92,110.62,111.58,110.62
	c61.66,0,111.86-48.06,111.86-110.62C629.65,969.65,579.45,921.55,517.79,921.55z M458.62,1033.12c0-81.65,118.02-81.37,118.02,0
	C576.63,1113.87,458.62,1114.49,458.62,1033.12z"/>
<g>
	<path class="st1" d="M997.95,970.5h4.53c10.16,0,16.93-0.44,20.7-1.34c5.23-1.26,9.4-3.76,12.39-7.43c3-3.67,4.52-8.38,4.52-14
		c0-5.58-1.56-10.3-4.65-14.01c-3.07-3.7-7.07-6.18-11.88-7.36c-3.33-0.83-9.5-1.24-18.86-1.24h-17.2v82.74h10.43V970.5z
		 M1021.98,958.98c-2.4,0.94-6.31,1.42-11.62,1.42l-12.41-0.15v-24.85h12.99c5.25,0,9.04,0.45,11.28,1.33
		c2.16,0.86,3.86,2.26,5.19,4.3c1.32,2.03,1.99,4.29,1.99,6.73c0,2.51-0.67,4.81-1.98,6.83
		C1026.1,956.61,1024.27,958.08,1021.98,958.98z"/>
	<path class="st1" d="M1105.89,1001.26c2.87-2.64,5.42-6.13,7.58-10.39l0.54-1.06l-8.51-4.47l-0.58,0.97
		c-2.26,3.75-4.36,6.49-6.27,8.14c-1.89,1.64-4.21,2.97-6.92,3.96c-2.72,1-5.55,1.51-8.41,1.51c-5.91,0-10.93-2.1-14.94-6.25
		c-3.78-3.91-5.86-8.92-6.23-14.93h53.42l-0.01-1.22c-0.08-8.36-2.37-15.44-6.82-21.05c-6.26-7.95-14.74-11.98-25.21-11.98
		c-10.18,0-18.43,3.94-24.51,11.71c-4.77,6.08-7.19,13.11-7.19,20.89c0,8.27,2.85,15.78,8.49,22.33c5.68,6.6,13.64,9.94,23.65,9.94
		c4.5,0,8.6-0.7,12.19-2.07C1099.75,1005.94,1103.03,1003.9,1105.89,1001.26z M1100.56,961.92c1.59,1.99,2.87,4.62,3.82,7.82h-41.08
		c1.48-4.46,3.53-7.88,6.12-10.19c3.94-3.53,8.73-5.32,14.23-5.32c3.34,0,6.57,0.72,9.61,2.13
		C1096.28,957.77,1098.74,959.64,1100.56,961.92z"/>
	<path class="st1" d="M1143.21,932.66c3.56,2.28,8.19,3.44,13.75,3.44c5.61,0,10.22-1.18,13.69-3.51c3.54-2.37,5.77-5.37,6.64-8.94
		l0.36-1.49h-9.12l-0.36,0.47c-1.48,1.95-3.04,3.31-4.63,4.06c-1.61,0.76-3.81,1.14-6.53,1.14c-2.7,0-5.03-0.44-6.93-1.31
		c-1.88-0.86-3.34-2.1-4.46-3.82l-0.35-0.55h-9.44l0.41,1.52C1137.24,927.32,1139.58,930.34,1143.21,932.66z"/>
	<polygon class="st1" points="1173.89,966.02 1173.89,1007.86 1183.94,1007.86 1183.94,946.04 1181.64,946.04 1139.71,988.28 
		1139.71,946.04 1129.66,946.04 1129.66,1007.86 1132.29,1007.86 	"/>
	<polygon class="st1" points="1219.93,1007.86 1219.93,955.05 1235.66,955.05 1235.66,946.04 1194.15,946.04 1194.15,955.05 
		1209.87,955.05 1209.87,1007.86 	"/>
	<polygon class="st1" points="1300.14,1007.86 1300.14,946.04 1297.84,946.04 1255.91,988.28 1255.91,946.04 1245.86,946.04 
		1245.86,1007.86 1248.49,1007.86 1290.09,966.02 1290.09,1007.86 	"/>
	<polygon class="st1" points="1369.27,1007.86 1369.27,946.04 1359.22,946.04 1359.22,969.63 1327.06,969.63 1327.06,946.04 
		1317.01,946.04 1317.01,1007.86 1327.06,1007.86 1327.06,979.24 1359.22,979.24 1359.22,1007.86 	"/>
	<polygon class="st1" points="1396.19,955.16 1418.58,955.16 1418.58,946.04 1386.14,946.04 1386.14,1007.86 1396.19,1007.86 	"/>
	<path class="st1" d="M1027.03,1055.98c-7.68,0-14.93,1.94-21.54,5.76c-6.61,3.83-11.89,9.19-15.71,15.93
		c-3.82,6.74-5.76,14.16-5.76,22.05c0,11.86,4.26,22.1,12.64,30.45c8.4,8.35,18.83,12.58,31.02,12.58c12.04,0,22.4-4.25,30.77-12.64
		c8.37-8.38,12.62-18.74,12.62-30.78c0-12.15-4.26-22.52-12.65-30.84C1050.03,1060.2,1039.46,1055.98,1027.03,1055.98z
		 M1060.37,1099.32c0,6.16-1.45,11.85-4.3,16.89c-2.85,5.04-6.88,9.06-11.96,11.95c-5.1,2.91-10.73,4.38-16.72,4.38
		c-8.96,0-16.73-3.2-23.08-9.51c-6.35-6.31-9.57-14.16-9.57-23.33c0-6.21,1.45-11.91,4.32-16.94c2.87-5.03,6.92-9.09,12.04-12.07
		c5.11-2.98,10.59-4.48,16.29-4.48c5.82,0,11.39,1.51,16.58,4.49c5.18,2.97,9.25,6.99,12.11,11.93
		C1058.92,1087.58,1060.37,1093.2,1060.37,1099.32z"/>
	<polygon class="st1" points="1127.96,1102.51 1095.8,1102.51 1095.8,1078.92 1085.76,1078.92 1085.76,1140.74 1095.8,1140.74 
		1095.8,1112.13 1127.96,1112.13 1127.96,1140.74 1138.01,1140.74 1138.01,1078.92 1127.96,1078.92 	"/>
	<polygon class="st1" points="1179.83,1078.92 1176.93,1078.92 1148.58,1140.74 1159.42,1140.74 1178.38,1099.17 1197.49,1140.74 
		1208.28,1140.74 1180.16,1079.62 	"/>
	<path class="st1" d="M1270.76,1087.59c-2.57-2.95-5.47-5.28-8.64-6.94c-4.11-2.16-8.76-3.25-13.81-3.25
		c-8.74,0-16.32,3.19-22.53,9.48c-6.21,6.28-9.36,13.95-9.36,22.8c0,9.02,3.12,16.79,9.27,23.09c6.15,6.31,13.69,9.51,22.4,9.51
		c4.9,0,9.48-1.03,13.61-3.07c3.26-1.61,6.3-3.86,9.05-6.71v8.26h9.94v-61.82h-9.94V1087.59z M1264.81,1093.74
		c4.28,4.37,6.45,9.88,6.45,16.4c0,4.27-0.97,8.17-2.88,11.57c-1.89,3.38-4.65,6.11-8.19,8.1c-7.04,3.97-15.46,4.03-22.33-0.01
		c-3.41-2.01-6.17-4.86-8.2-8.47c-2.04-3.62-3.07-7.46-3.07-11.41c0-3.98,1.02-7.82,3.04-11.41c2.01-3.57,4.75-6.39,8.14-8.36
		c3.4-1.97,7.17-2.97,11.18-2.97C1255.29,1087.17,1260.47,1089.32,1264.81,1093.74z"/>
	<polygon class="st1" points="1307.79,1121.16 1307.79,1078.92 1297.74,1078.92 1297.74,1140.74 1300.36,1140.74 1341.97,1098.91 
		1341.97,1140.74 1352.02,1140.74 1352.02,1078.92 1349.72,1078.92 	"/>
	<path class="st1" d="M1311.29,1065.55c3.56,2.28,8.19,3.44,13.76,3.44c5.61,0,10.22-1.18,13.69-3.5c3.54-2.36,5.77-5.36,6.65-8.94
		l0.36-1.49h-9.12l-0.36,0.48c-1.48,1.95-3.04,3.31-4.63,4.06c-1.61,0.76-3.81,1.14-6.53,1.14c-2.69,0-5.03-0.44-6.93-1.31
		c-1.88-0.86-3.34-2.11-4.46-3.82l-0.35-0.55h-9.44l0.41,1.52C1305.32,1060.21,1307.66,1063.23,1311.29,1065.55z"/>
	<polygon class="st1" points="1411.1,1102.51 1378.94,1102.51 1378.94,1078.92 1368.89,1078.92 1368.89,1140.74 1378.94,1140.74 
		1378.94,1112.13 1411.1,1112.13 1411.1,1140.74 1421.15,1140.74 1421.15,1078.92 1411.1,1078.92 	"/>
	<rect x="1433.05" y="1104.81" class="st1" width="32.45" height="9.07"/>
	<polygon class="st1" points="1563.89,1130.74 1531.35,1130.74 1531.35,1058.01 1520.91,1058.01 1520.91,1130.74 1488.98,1130.74 
		1488.98,1058.01 1478.54,1058.01 1478.54,1140.74 1574.33,1140.74 1574.33,1058.01 1563.89,1058.01 	"/>
	<polygon class="st1" points="1642.5,1078.92 1628.25,1078.92 1602.39,1102.43 1602.39,1078.92 1592.34,1078.92 1592.34,1140.74 
		1602.39,1140.74 1602.39,1114.74 1603.54,1113.72 1630.42,1140.74 1644.66,1140.74 1610.97,1107.36 	"/>
	<path class="st1" d="M1680.04,1077.39c-9.5,0-17.48,3.5-23.71,10.39c-5.65,6.24-8.51,13.71-8.51,22.21
		c0,8.58,3.03,16.18,8.99,22.58c5.98,6.43,13.8,9.69,23.22,9.69c9.39,0,17.18-3.26,23.17-9.69c5.97-6.41,8.99-14.01,8.99-22.58
		c0-8.53-2.87-16.02-8.52-22.27C1697.46,1080.87,1689.51,1077.39,1680.04,1077.39z M1660.95,1121.58
		c-1.97-3.51-2.97-7.36-2.97-11.42c0-6.31,2.19-11.76,6.52-16.2c4.37-4.5,9.45-6.68,15.52-6.68c5.96,0,11.17,2.25,15.49,6.68
		c4.34,4.44,6.54,9.89,6.54,16.2c0,4.06-1,7.91-2.97,11.43c-1.96,3.5-4.65,6.24-7.98,8.14c-6.7,3.81-15.46,3.81-22.15,0
		C1665.6,1127.83,1662.91,1125.09,1660.95,1121.58z"/>
	<polygon class="st1" points="1751.45,1079.62 1751.12,1078.92 1748.22,1078.92 1719.87,1140.74 1730.71,1140.74 1749.66,1099.17 
		1768.78,1140.74 1779.57,1140.74 	"/>
</g>
<g>
	<rect x="851.45" y="924.93" class="st2" width="52.69" height="215.75"/>
	<rect x="754.31" y="1030.31" class="st2" width="52.69" height="110.38"/>
	<rect x="657.14" y="977.62" class="st2" width="52.69" height="163.07"/>
</g>
</svg>
